<?xml version="1.0" encoding="utf-8"?>
<!-- Generator: Adobe Illustrator 27.0.0, SVG Export Plug-In . SVG Version: 6.00 Build 0)  -->
<svg version="1.1" id="Layer_1" xmlns="http://www.w3.org/2000/svg" xmlns:xlink="http://www.w3.org/1999/xlink" x="0px" y="0px"
	 viewBox="0 0 2574.58 2452.95" style="enable-background:new 0 0 2574.58 2452.95;" xml:space="preserve">
<style type="text/css">
	
		.st0{clip-path:url(#SVGID_00000061433792664932583280000002874444989989436826_);fill:none;stroke:#000000;stroke-width:10;stroke-miterlimit:10;}
	.st1{clip-path:url(#SVGID_00000061433792664932583280000002874444989989436826_);}
	.st2{clip-path:url(#SVGID_00000061433792664932583280000002874444989989436826_);fill:#FFFFFF;}
	.st3{fill:#FFFFFF;}
</style>
<rect width="2574.58" height="2452.95"/>
<g>
	<defs>
		<rect id="SVGID_1_" x="-3834.66" y="725.6" width="1024" height="1024"/>
	</defs>
	<clipPath id="SVGID_00000047770698897972785860000016408227079285305000_">
		<use xlink:href="#SVGID_1_"  style="overflow:visible;"/>
	</clipPath>
	
		<path style="clip-path:url(#SVGID_00000047770698897972785860000016408227079285305000_);fill:none;stroke:#000000;stroke-width:10;stroke-miterlimit:10;" d="
		M-3596.68,1211.64c-4.02-17.84-25.21-115.35-5.85-184.81c5.26-18.89,13.18-38.7,13.18-38.7c5.15-12.9,16.02-38.11,39.46-74.76
		c21.43-33.51,34.08-53.29,53.81-72.52c63.93-62.34,150.09-68.21,178.96-70.18c50.35-3.43,82.9,6.63,91.24,9.36
		c11.99,3.92,35.16,11.71,57.31,29.24c11.88,9.4,25.84,23.48,29.24,26.9c4.41,4.44,9.79,9.89,16.38,17.54
		c7.2,8.38,12.16,15.11,22.22,29.24c13.73,19.28,20.59,28.92,22.22,31.58c6.44,10.49,10.47,19.89,23.39,64.33
		c10.27,35.32,15.4,52.97,17.55,64.33c2.47,13.11,7.13,38.46,7.02,71.35c-0.07,20.08-0.1,31.58-2.34,47.96
		c-3.18,23.29-8.58,40.16,0,54.97c1.58,2.72,3.95,5.94,5.85,11.7c2.54,7.71,2.44,14.78,1.17,25.73
		c-1.38,11.87-3.85,23.95-9.61,43.73c-4.2,14.43-4.54,13.69-6.76,21.77c-3.43,12.46-5.1,23.27-8.19,63.16
		c-2.74,35.5-1.95,33.86-3.51,44.45c-1.06,7.22-3.9,24.77-10.53,46.79c-3.37,11.19-7.76,25.56-16.38,43.28
		c-7.66,15.74-15.16,26.96-22.22,37.43c-2.68,3.98-4.85,7.03-23.39,31.58c-16.2,21.44-24.35,32.22-26.9,35.09
		c-16.53,18.58-32.68,30.25-39.77,35.09c-24.46,16.71-46.52,24.25-54.98,26.9c-5.23,1.64-29.75,9.11-63.16,9.36
		c-31.15,0.23-55.18-5.92-66.67-9.36c-18.23-5.45-30.72-11.75-51.47-22.22c-17.73-8.95-26.81-13.6-37.43-22.22
		c-8.01-6.51-17.52-15.75-31.58-36.26c-14.06-20.51-24.1-39.77-36.26-66.67c-21.09-46.66-31.64-69.99-35.09-88.9
		c-3.77-20.66-8.64-64.31-10.53-86.56c-0.44-5.19-1.29-15.98-5.85-29.24c-3.61-10.51-5.97-12.13-10.53-23.39
		c-2.98-7.37-8-20.02-9.36-36.26c-1.25-14.87,1.09-26.53,3.51-38.6C-3600.68,1224.63-3598.45,1217.04-3596.68,1211.64z"/>
	
		<path style="clip-path:url(#SVGID_00000047770698897972785860000016408227079285305000_);fill:none;stroke:#000000;stroke-width:10;stroke-miterlimit:10;" d="
		M-3118.28,1005.78L-3118.28,1005.78c-0.93-2.21-2.32-5.34-4.19-8.99c-18.27-35.86-48.79-57.19-63.66-64.7
		c-43.72-22.06-62.7,19.76-142.7,15.21c-47.29-2.69-75.02-19.27-129.83-12.87c-19.07,2.23-36.14,6.62-46.79,19.89
		c-6.7,8.35-4.11,11.79-17.55,38.6c-8.43,16.82-11.15,18.85-12.87,28.07c-1.01,5.41-0.19,5.3,0,31.58c0.12,17.89-0.28,15.32,0,24.56
		c0.43,14.32,1.28,16.85,0,23.39c-1.3,6.66-3.6,11.07-8.19,19.89c-7.43,14.27-10.96,16.13-15.21,25.73
		c-3.12,7.05-4.67,13.85-5.85,24.56c-3.56,32.26-0.54,70.65,0,77.2c5.99,73.08,8.83,63.72,8.19,85.39
		c-0.16,5.36-0.72,19.12,3.51,36.26c2.17,8.79,5.09,20.1,14.04,31.58c1.83,2.35,9.2,11.49,22.23,18.71
		c17.92,9.95,37.42,11.21,37.43,11.16c0,0,0-0.01-2.34-0.63c14.85,4.65,20.07,2.44,22.22,0c7.33-8.28-12.31-28.55-3.51-47.96
		c3.01-6.63,8.11-10.46,12.87-14.04c12-9.02,17.33-4.79,35.09-14.04c9.48-4.94,11.94-8.21,22.22-11.7
		c5.55-1.88,9.82-2.61,15.21-3.51c11.78-1.96,19.54-1.9,33.92-2.34c24.35-0.74,20.4-1.49,26.9-1.17
		c9.58,0.47,13.03,1.84,46.79,10.53c10.53,2.71,21.04,5.5,31.58,8.19c17.54,4.47,22.61,5.63,30.41,9.36
		c9.29,4.44,16.65,8.06,22.22,16.38c1.16,1.73,6.91,10.61,7.02,22.22c0,0,0.02,1.52-1.17,15.21c5.89,0.49,14.65,0.52,24.56-2.34
		c3.8-1.1,5.14-1.86,14.04-5.85c23.93-10.73,26.77-10.83,35.09-16.38c10.42-6.95,13.99-12.15,15.21-14.04
		c3.75-5.84,5.12-11.41,5.85-15.2c3.39-17.69,0.09-34.57-1.17-44.45c-2.53-19.82,2.63-15.41,4.68-63.16
		c0.17-3.99,0.93-22.52,0-46.79c-1.05-27.56-3.27-36.19-4.68-40.94c-3.13-10.54-4.5-9.36-11.7-29.24
		c-6.23-17.22-5.54-19.03-10.53-30.41c-6.75-15.42-9.25-14.91-11.7-24.56c-2.13-8.4-1.81-15.35-1.17-29.24
		c0.47-10.16,1.47-18.59,2.34-24.56L-3118.28,1005.78z"/>
	<path style="clip-path:url(#SVGID_00000047770698897972785860000016408227079285305000_);" d="M-3389.65,1135.61
		c-15.86-8.19-30.56-8.86-44.45-9.36c-12.41-0.44-25.74-0.79-42.11,4.68c-6.28,2.1-20.08,6.87-32.75,18.71
		c-4.21,3.93-8.07,9.12-15.75,19.54c-5.22,7.07-5.92,8.7-5.3,9.7c2.26,3.66,20.53-3.57,29.24-7.02c13.32-5.27,14.2-7.25,24.56-10.53
		c4.7-1.49,12.75-3.98,23.39-4.68c9.09-0.59,15.64,0.42,28.07,2.34c10.78,1.66,16.47,2.54,24.56,4.68
		c10.94,2.89,15.41,5.2,22.22,3.51c1.1-0.27,10.38-2.58,11.7-8.19C-3363.93,1149.11-3388.09,1136.42-3389.65,1135.61"/>
	
		<path style="clip-path:url(#SVGID_00000047770698897972785860000016408227079285305000_);fill:none;stroke:#000000;stroke-width:10;stroke-miterlimit:10;" d="
		M-3389.65,1135.61c-15.86-8.19-30.56-8.86-44.45-9.36c-12.41-0.44-25.74-0.79-42.11,4.68c-6.28,2.1-20.08,6.87-32.75,18.71
		c-4.21,3.93-8.07,9.12-15.75,19.54c-5.22,7.07-5.92,8.7-5.3,9.7c2.26,3.66,20.53-3.57,29.24-7.02c13.32-5.27,14.2-7.25,24.56-10.53
		c4.7-1.49,12.75-3.98,23.39-4.68c9.09-0.59,15.64,0.42,28.07,2.34c10.78,1.66,16.47,2.54,24.56,4.68
		c10.94,2.89,15.41,5.2,22.22,3.51c1.1-0.27,10.38-2.58,11.7-8.19C-3363.93,1149.11-3388.09,1136.42-3389.65,1135.61z"/>
	<path style="clip-path:url(#SVGID_00000047770698897972785860000016408227079285305000_);" d="M-3277.51,1141.88
		c3.56-8.53,12.51-11.84,21.42-15c4.51-1.6,14.97-4.88,34.55-5.14c12.99-0.17,28.18-0.22,46.79,5.85
		c7.11,2.32,17.71,5.86,28.99,14.28c15.28,11.39,28.28,29.06,24.81,33.67c-2.78,3.71-15.58-1.04-22.22-3.51
		c-10.2-3.79-11.88-6.53-21.87-10.88c-12.14-5.28-22.53-6.77-27.85-7.5c-12.72-1.73-22.67-0.82-31.06,0
		c-12.97,1.27-27.26,4.19-28,4.35c-14.76,3.1-19.55,5.39-23.39,2.34C-3279.97,1156.68-3280.01,1147.87-3277.51,1141.88"/>
	
		<path style="clip-path:url(#SVGID_00000047770698897972785860000016408227079285305000_);fill:none;stroke:#000000;stroke-width:10;stroke-miterlimit:10;" d="
		M-3277.51,1141.88c3.56-8.53,12.51-11.84,21.42-15c4.51-1.6,14.97-4.88,34.55-5.14c12.99-0.17,28.18-0.22,46.79,5.85
		c7.11,2.32,17.71,5.86,28.99,14.28c15.28,11.39,28.28,29.06,24.81,33.67c-2.78,3.71-15.58-1.04-22.22-3.51
		c-10.2-3.79-11.88-6.53-21.87-10.88c-12.14-5.28-22.53-6.77-27.85-7.5c-12.72-1.73-22.67-0.82-31.06,0
		c-12.97,1.27-27.26,4.19-28,4.35c-14.76,3.1-19.55,5.39-23.39,2.34C-3279.97,1156.68-3280.01,1147.87-3277.51,1141.88z"/>
	<path style="clip-path:url(#SVGID_00000047770698897972785860000016408227079285305000_);" d="M-3500.77,1208.13
		c-1.88-8.41,21.04-23.8,44.45-28.07c32.96-6.01,67.3,9.97,66.67,18.71c-0.4,5.61-15.26,9.34-33.92,14.04
		c-7.21,1.81-16.2,4.03-28.07,4.68C-3466.42,1218.3-3498.7,1217.41-3500.77,1208.13"/>
	
		<path style="clip-path:url(#SVGID_00000047770698897972785860000016408227079285305000_);fill:none;stroke:#000000;stroke-width:10;stroke-miterlimit:10;" d="
		M-3500.77,1208.13c-1.88-8.41,21.04-23.8,44.45-28.07c32.96-6.01,67.3,9.97,66.67,18.71c-0.4,5.61-15.26,9.34-33.92,14.04
		c-7.21,1.81-16.2,4.03-28.07,4.68C-3466.42,1218.3-3498.7,1217.41-3500.77,1208.13z"/>
	<path style="clip-path:url(#SVGID_00000047770698897972785860000016408227079285305000_);" d="M-3263.64,1200.83
		c-1.58-8.75,19.9-19.98,35.09-24.24c3.55-1,20.57-5.49,41.68,0.11c15.1,4,36.83,14.37,35.52,23.03
		c-1.12,7.38-18.58,11.01-29.24,13.22c-10.57,2.2-20.52,2.61-31.23,1.96C-3223.47,1214.21-3261.64,1211.92-3263.64,1200.83"/>
	
		<path style="clip-path:url(#SVGID_00000047770698897972785860000016408227079285305000_);fill:none;stroke:#000000;stroke-width:10;stroke-miterlimit:10;" d="
		M-3263.64,1200.83c-1.58-8.75,19.9-19.98,35.09-24.24c3.55-1,20.57-5.49,41.68,0.11c15.1,4,36.83,14.37,35.52,23.03
		c-1.12,7.38-18.58,11.01-29.24,13.22c-10.57,2.2-20.52,2.61-31.23,1.96C-3223.47,1214.21-3261.64,1211.92-3263.64,1200.83z"/>
	<path style="clip-path:url(#SVGID_00000047770698897972785860000016408227079285305000_);" d="M-3027.21,1270.19
		c-0.14-3.07-0.83-6.02-2-8.71c2.41-3.55,3.8-7.75,3.6-12.2c-0.13-2.83-0.73-5.56-1.74-8.08c0.13-1.04,0.18-2.11,0.13-3.18
		c-0.3-6.76-3.32-12.94-8.09-17.11c1.37-3.12,1.68-6.68,0.77-10.05c-1.56-5.78-1.61-11.33-1.58-18.23
		c0.03-7.29-0.2-14.66,0.21-21.94c0.3-5.35,3.48-12.77,3.08-19.49c-0.15-2.47-0.51-4.97-1.14-7.37c1.77-4.65,2.43-9.83,2.68-14.76
		c0.32-6.29-0.27-12.78-0.69-19.05c-0.57-8.58-1.99-16.95-3.52-25.31c0.71-1.49,1.28-3.05,1.66-4.7c1.71-7.52,1.54-16.53-3.02-23.12
		c-0.93-1.35-1.77-2.72-2.55-4.13c-0.02-0.07-0.05-0.14-0.07-0.2c-0.52-1.66-1.17-3.24-1.92-4.75c2.72-6.87,3.79-13.92,1.44-21.31
		c-1.7-5.35-4.69-10.43-8.81-14.28c1.04-6.39,0.01-13.07-3.77-19.02c-0.73-1.16-1.41-2.33-2.03-3.52
		c-3.82-11.28-5.21-23.38-8.24-34.88c-1.75-6.66-3.8-13.24-6.34-19.64c-3.79-9.55-7.75-19.03-15.73-25.96
		c-1.59-1.38-3.24-2.64-4.95-3.74c-1.98-5.8-5.78-11.05-11.13-15.21c-0.14-0.16-0.4-0.44-0.7-0.78c-0.15-0.28-0.3-0.57-0.45-0.85
		c-1.93-5.05-3.92-9.88-7.38-14.35c-0.89-1.15-1.76-2.33-2.71-3.44c-0.8-1.61-2.28-4.06-2.48-4.45
		c-5.71-10.74-16.34-18.53-25.25-26.49c-1.58-1.41-3.3-2.66-5.12-3.74c-0.32-0.35-0.64-0.69-0.98-1.03
		c-8.11-8.11-15.96-16.71-24.72-24.14c-11.76-9.97-23.75-16.24-38.19-21.55c-10.52-3.87-21.17-7.41-31.76-11.1
		c-7.79-2.71-15.13-4.64-23.46-5.32c-5.46-0.44-10.92,0.34-16.35,1.26c-6.92-1.56-13.62-1.66-20.24-1.01
		c-4.57-0.18-9.15-0.36-13.73-0.54c-2.2-0.09-4.35,0.12-6.42,0.56c-1-0.06-2.01-0.07-3.04-0.01c-5.41,0.3-10.81,0.61-16.22,0.91
		c-3.98,0.22-7.66,0.97-11.03,2.29c-16.24,2.02-32.39,4.68-47.76,10.25c-21.84,7.91-41.98,19.07-61.87,30.87
		c-1.75,0.58-3.49,1.3-5.21,2.2c-5.26,2.75-10.7,5.31-15.84,8.29c-4.02,2.33-8.06,5.24-11.17,8.71c0.33-0.37-4.44,5.5-6.77,8.87
		c-2.2,1.52-4.33,3.14-6.46,4.78c-8.36,6.46-15.27,15-17.66,25.56c-0.46,2.04-0.74,4.05-0.86,6.03c-0.82,0.84-1.55,1.78-2.15,2.84
		c-4.4,7.8-9.26,15.3-14.56,22.51c-4.65,6.33-11.44,13.6-16.26,20.85c-5.06,7.62-9.05,16.02-13.36,24.08
		c-4.65,8.71-9.3,17.42-13.95,26.12c-1.51,2.83-2.09,5.97-1.82,9c-1,0.93-1.88,2.03-2.59,3.32c-3.08,5.6-4.31,11.08-4.97,17.36
		c-0.49,4.61-0.51,9.38-1.23,12.56c-2.16,9.51-6.52,17.06-11.56,26.04c-2.35,4.19-2.49,9.17-0.76,13.39
		c-0.26,1.15-0.37,2.35-0.26,3.6c2.08,23.48,1.61,47.05-1.42,70.42c-0.68,5.21,2,9.36,5.97,11.93c-1.69,3.29-2.21,7.22-1.41,11.11
		c1.62,7.88,4.26,15.51,5.7,23.42c1.16,6.36,1.3,14.97,0.72,22.49c-0.24,3.12,0.89,6.18,2.8,8.72c-0.88,2.78-1.06,5.87-0.61,8.98
		c-0.31-2.11-0.06,2.68-0.08,3.25c-0.01,0.75-0.06,1.49-0.13,2.24c-1.71,2.34-2.68,5.17-2.42,8.3c0.04,0.52,0.09,1.05,0.13,1.57
		c-0.06,0.22-0.12,0.44-0.18,0.66c-2.06,7.18-4.5,14.23-5.66,21.64c-2.84,18.16,2.67,33.86,10.72,49.93c1.01,2.01,2.53,3.6,4.34,4.8
		c2.41,8.19,3.36,16.15,6.92,24.06c0.01,0.03,0.03,0.06,0.05,0.1c-1.72,2.42-2.72,5.32-2.59,8.39c0.19,4.25,2,8.15,4.87,10.91
		c-1.44,2.28-2.27,4.92-2.15,7.71c0.18,3.93,1.73,7.56,4.24,10.27c-1.32,2.16-2.07,4.69-1.92,7.45c0.18,3.33,0.35,6.66,0.53,9.99
		c0.07,1.36,0.29,2.7,0.64,3.99c-0.85,1.85-1.3,3.89-1.21,6.01c0.29,6.55,4.39,12.27,10.37,14.25c-0.17,5.3-0.65,10.52-1.23,15.79
		c-1.15,10.37,3.41,20.27,6.65,29.89c0.94,2.78,2.56,5.2,4.62,7.07c-1.11,3.15-1.71,6.43-1.58,9.53
		c0.48,10.62,7.03,22.21,16.82,27.37c1.17,3.25,2.84,6.35,4.87,9.18c0,0.45,0,0.89,0.02,1.34c0.29,6.37,2.38,12.35,5.82,17.27
		c1.42,9.7,6.6,17.03,13.62,23.24c1.1,6.31,4.08,12.57,8.57,17.14c0.4,6.4,2.65,12.71,7.04,17.23c1.03,2.68,2.28,5.29,4.24,7.83
		c3.07,3.97,6.74,6.69,10.93,9.08c0.16,0.28,0.32,0.56,0.49,0.83c2.04,3.23,4.56,6.35,7.47,9.03c1.31,5.01,3.73,9.71,7.61,13.27
		c1.19,1.1,2.4,2.06,3.63,2.9c0.99,1.06,2.68,2.65,3.54,3.42c3.4,3.02,7.18,5.85,11.06,8.26c4.76,2.95,9.92,5.28,14.93,7.79
		c5.26,2.63,10.49,5.34,15.78,7.89c6.23,3,11.96,5.2,18.11,6.55c2.18,1.9,4.53,3.58,6.9,5.23c2.59,1.8,5.9,2.96,9.39,3.55
		c4.44,2.96,9.71,4.68,15.51,4.56c5.11,1.52,9.98,3.92,15.16,5.26c6.83,1.76,13.85,2.87,20.78,4.19c7.44,1.42,14.69,1.25,21.48-2.15
		c2.52,0.48,5.02,1.03,7.52,1.7c7.61,2.04,15.98,0.74,22.88-3.07c13.59-1.13,27.1-3.14,40.45-5.9c4.45-0.92,8.35-3.06,11.58-5.97
		c3.64-0.97,7.21-2.16,10.64-3.6c2.43-1.02,4.81-2.08,7.05-3.32c9.71-0.58,19.09-5.45,23.88-14.51c0.42-0.79,0.79-1.59,1.14-2.4
		c2.21-0.69,4.29-1.58,6.05-2.61c4.72-2.76,9.27-7.53,11.9-12.8c8.04-6.6,15.47-13.74,22.27-22.04
		c7.22-8.81,14.75-17.27,20.12-26.78c1.57-1.05,3.03-2.27,4.33-3.69c1.73-1.88,3.14-3.81,4.29-5.82c2.73-2.68,5.1-5.74,6.86-9.08
		c0.78-1.49,1.45-3.02,2.07-4.58c4.61-3.46,8.33-8.19,10.44-13.48c3-1.38,5.76-3.27,8.04-5.75c5.41-5.89,8.73-13.07,8.79-21.21
		c0-0.16,0-0.33,0-0.49c8.61-5.39,14.72-14.84,14.25-25.31c-0.06-1.38-0.23-2.74-0.46-4.08c2.2-4.11,3.39-8.73,3.18-13.57
		c-0.02-0.46-0.05-0.92-0.09-1.37c0.63-1.51,1.15-3.03,1.62-4.56c3.91-5.03,6.23-11.23,5.94-17.83c-0.06-1.33-0.21-2.64-0.43-3.94
		c7.01-5.56,11.7-14,11.29-23.22c-0.16-3.55-0.88-6.98-2.08-10.18c1.03-3.01,1.55-6.2,1.4-9.51c-0.18-4.03-1.08-7.9-2.59-11.44
		c4.61-4.15,7.6-10.05,7.32-16.44c-0.18-4.03-1.33-7.85-3.23-11.16c6.29-8.41,4.71-21.91,3.54-32.24c-0.08-0.74-0.22-1.47-0.38-2.2
		c3.2-3.87,5.13-8.72,4.89-13.92c-0.05-1.13-0.18-2.23-0.38-3.32c3.52-3.68,5.82-8.46,6.01-13.65c2.67-3.66,4.23-8.09,4.02-12.79
		c-0.09-2.06-0.44-4.05-1.01-5.96C-3029.96,1282.59-3026.92,1276.65-3027.21,1270.19 M-3484.33,1612.13
		c0.02-0.03,0.05-0.06,0.07-0.09c0.63,0.67,1.17,1.25,1.17,1.26C-3483.33,1613.37-3483.82,1612.81-3484.33,1612.13
		 M-3078.53,1248.59c0.4,1.35,0.9,2.71,1.51,4.05C-3077.85,1251.39-3078.35,1250.04-3078.53,1248.59 M-3078.65,1248.18
		c-0.01,0.18-0.01,0.33-0.02,0.46c-0.46,1.39-1.14,2.96-1.3,3.45c-1.9,5.79-3.07,11.29-3.5,17.44c-0.3,4.3,1.08,8.52,3.52,12.13
		c-4.27,4.11-7,9.77-6.73,15.88c0.18,4.01,1.32,7.82,3.2,11.12c-3.15,3.85-5.04,8.67-4.81,13.81c0.26,5.88,2.58,11.31,6.31,15.37
		c-2.62,3.57-3.74,8.22-2.48,12.64c-0.01,0.05-0.01,0.09-0.02,0.15c-0.28,2.03-0.69,4.11-0.74,6.17c-0.06,2.39,0.4,4.92,1.2,7.29
		c-5.56,4.13-9.35,10.62-9.09,17.74c-7.61,2.92-14.13,8.87-17.43,16.27c-5.47,0.88-10.73,3.28-15.12,7.38
		c-4.29,0.87-8.56,1.88-12.75,3.13c-7.93,2.37-15.31,5.99-22.76,9.47c-0.69,0.22-1.38,0.43-2.08,0.6
		c-4.56,0.54-8.94,1.41-13.01,3.15c-0.56-0.54-1.13-1.07-1.68-1.62c-2.13-2.14-4.61-3.9-7.3-5.26c0.61-5.28,0.81-10.69,1.27-15.82
		c0.77-8.73-5.31-20.71-13.36-25.17c-5.29-8.33-14.19-14.21-24.8-13.71c-1.45,0.07-2.87,0.05-4.29-0.04
		c-6.89-1.17-13.71-2.48-20.67-3.41c-1.78-0.92-3.65-1.57-5.6-1.85c-3.92-0.56-7.76-1.36-11.57-2.37c-3.26-2.27-6.9-4.08-10.79-5.55
		c-3.19-1.21-6.55-1.75-9.94-2.13c-5.02-2.91-9.81-5.94-15.86-7.12c-7.65-1.49-15.03-1.55-22.74-1.33
		c-12.53,0.35-25.06,0.69-37.59,1.04c-6.15,0.17-12.21,2.29-17.25,5.8c-2.52,0.17-5.06,0.56-7.61,1.2c-2.75,0.7-5.34,1.85-7.72,3.36
		c-1.54,0.22-3.08,0.46-4.6,0.74c-4.82,0.91-9.44,2.91-13.68,5.35c-2.83,1.63-5.58,4.08-7.97,6.45c-6.82,1.79-13.8,3.18-20.58,4.84
		c-15.31,3.77-25.76,21.75-20.95,36.9c1.83,5.75,4.03,9.97,6.92,14.26c-0.68,2.01-1.27,4.04-1.73,6.09
		c-0.66,2.91-1.14,5.62-1.49,8.21c-0.06,0-0.13-0.01-0.19-0.01c-5.46-0.09-10.94,0.05-16.4,0.08c-8.41,0.05-17.02,0.57-25.47,0.17
		c-1.56-1.03-3.07-2.14-4.62-3.25c-4.32-3.07-9.25-5.15-14.29-6.78c-0.53-0.17-1.06-0.32-1.59-0.45c-1.39-5.8-5.8-10.34-11.7-11.53
		c-0.79-1.78-2.26-3.68-3.25-5.23c-2.74-4.3-5.98-8.35-9.5-12.03c-1.43-1.5-3.21-2.61-5.14-3.33c-0.11-2.11-0.22-4.21-0.33-6.32
		c-0.21-3.88-1.48-7.56-4.21-10.4c1.29-2.18,2.01-4.68,1.89-7.31c-0.19-4.25-2-8.15-4.87-10.91c1.44-2.27,2.27-4.92,2.14-7.71
		c-0.12-2.71-0.91-5.28-2.2-7.5c3.12-4.62,3.08-10.71,0.64-16.13c0.76,1.7-0.62-2.25-0.73-2.64c-0.51-1.88-0.88-3.79-1.26-5.7
		c-0.65-3.28-1.28-6.55-2.28-9.75c-0.89-2.85-2.31-6.42-2.74-8.82c-0.69-3.79-0.7-7.83-1.02-11.67c-1.25-14.8-2.51-29.61-3.76-44.41
		c0.05-0.23,0.12-0.47,0.17-0.7c1.98-8.74,2.28-16.77,1-25.6c-0.27-1.86-1.04-3.51-2.12-4.94c0.53-1.49,0.87-3.09,1-4.78
		c0.65-8.44,0.23-16.73-0.93-25.07c3.08-2.69,5-6.65,5.33-11.28c0.36-5.05,0.73-10.1,1.09-15.15c0.14-1.89,0.21-3.8,0.41-5.68
		c0.04-0.38,0.07-0.67,0.1-0.91c2.47-3.33,5.34-6.25,7.33-9.97c1.99-3.73,3.84-7.32,6.32-10.77c11.04-15.35,15.15-33.58,10.51-52.1
		c-0.01-0.05-0.03-0.1-0.05-0.15c1.85-3.25,2.5-7.15,1.24-11.02c-2.69-8.23-3.7-16.57-2.42-24.2c0.48-2.85,0.32-5.84-0.49-8.59
		c1.02-2.01,1.62-4.28,1.69-6.69c0.14-4.9-0.4-6.59,1.42-10.67c-0.73,1.65,2.04-2.56,1.14-1.51c1.53-1.91,3.14-3.74,4.64-5.68
		c3.1-4.01,5.32-8.2,6.79-13.1c0.43-1.43,1.23-3.32,1.36-4.84c0.11-0.09,0.21-0.17,0.35-0.28c3.14-2.54,4.46-6.5,4.35-10.48
		c1.51-1.35,2.76-2.97,3.6-4.81c3.37-2.78,5.61-6.91,5.41-11.41c-0.02-0.43-0.06-0.85-0.11-1.27c0.21-0.81,0.42-1.62,0.67-2.41
		c0.22-0.75,0.48-1.48,0.74-2.22c0.11-0.22,0.27-0.53,0.48-0.96c0.32-0.48,0.52-0.8,0.63-1c0.22-0.21,0.34-0.35,0.38-0.42
		c1.04-0.61,2.18-1.05,3.24-1.6c2.76-1.44,5.24-3.22,7.5-5.29c0.33,0.04,0.67,0.09,1.01,0.12c18.74,1.46,35.22-10.89,52.26-13
		c19.26-2.39,39.77,0.2,58.17,4.48c0.14,0.03,0.28,0.05,0.42,0.08c1.55,0.56,3.23,0.83,5.01,0.68c0.28-0.02,0.56-0.05,0.84-0.07
		c0.77,0.74,1.62,1.43,2.57,2.04c5.31,3.44,12.09,5.18,18.46,4.43c2.46,1.95,5.53,3.12,8.98,3.07c11.53-0.19,23.07-0.36,34.6-0.56
		c5.24-0.09,10.45-0.28,15.64-0.96c3.35-0.44,6.66-0.97,9.97-1.66c1.11-0.23,2.21-0.48,3.32-0.68c0.53-0.09,0.74-0.15,0.78-0.19
		c0.29-0.01,0.65-0.01,1.1-0.03c6.12-0.2,12.01,0.42,18.04-1.26c4.9-1.36,9.56-3.65,14.35-5.37c10.39-3.72,21.03-6.65,31.82-8.9
		c2.83-0.59,5.22-2.17,7.05-4.28c1.45,0.19,2.96,0.21,4.47,0.04c1.86,2.57,4.53,4.56,7.9,5.45c5.24,1.39,10.48,2.77,15.72,4.16
		c2.1,0.56,4.1,0.65,5.97,0.39c0.28,0.66,0.57,1.33,0.9,1.99c3.62,7.41,10.39,13.15,17.2,17.5c1.98,1.26,4.08,2.3,6.08,3.53
		c0.13,0.08,0.47,0.26,0.85,0.47c0.08,0.07,0.15,0.14,0.24,0.21c8.15,7.22,15.15,15.91,22.46,23.95c0.67,0.74,1.41,1.41,2.17,2.06
		c1.48,2.07,3.25,4.01,5.09,5.66c0.57,6.73,3.6,13.21,8.18,18.21c-3.42,5.27-5.26,11.66-5.44,17.81c-0.06,1.97-0.11,3.89-0.24,5.83
		c-0.61,3.88-1.21,7.77-1.57,11.67c-0.53,5.71,0.4,10.93,1.2,16.66c0.23,1.62,0.81,3.29,1.62,4.93c-0.78,4.02-1.53,8.21-1.32,12.29
		c0.44,8.49,3.21,15.49,8.41,21.84c0.25,3.29,0.81,6.58,1.69,9.86c1.04,3.85,2.72,7.45,3.86,11.25c0.7,8.38,5,16.41,11.42,21.76
		c-0.78,7.17-0.57,13.51,3.38,20.25c1.99,3.4,5.03,6.72,8.55,9.29c-0.16,3.93-0.16,7.87-0.27,11.79
		c-0.22,7.93-0.48,15.86-0.77,23.79c-0.14,3.74,1.48,7.39,4.05,10.16c-1.59,3.9-1.56,8.29,0.93,12.55c0.59,1,1.35,1.94,2.23,2.8
		C-3079.93,1235.07-3080.52,1241.6-3078.65,1248.18"/>
	<path style="clip-path:url(#SVGID_00000047770698897972785860000016408227079285305000_);fill:#FFFFFF;" d="M-3396.76,1417.1
		c-1.11-12.16,36.95-30.03,73.91-31.06c38.31-1.07,78.68,15.85,78.19,28.92c-0.5,13.46-44.31,21.78-48.2,22.49
		c-20,3.67-35.75,1.6-47.13,0C-3352.81,1435.65-3395.62,1429.65-3396.76,1417.1"/>
	
		<path style="clip-path:url(#SVGID_00000047770698897972785860000016408227079285305000_);fill:none;stroke:#000000;stroke-width:10;stroke-miterlimit:10;" d="
		M-3396.76,1417.1c-1.11-12.16,36.95-30.03,73.91-31.06c38.31-1.07,78.68,15.85,78.19,28.92c-0.5,13.46-44.31,21.78-48.2,22.49
		c-20,3.67-35.75,1.6-47.13,0C-3352.81,1435.65-3395.62,1429.65-3396.76,1417.1z"/>
</g>
<g>
	<circle class="st3" cx="1287.29" cy="1226.47" r="546.13"/>
	<g>
		<path d="M1213.82,1106.11c-8.3-6.3-17.2-10.95-18.19-11.46l0,0c-22.51-11.62-43.86-12.37-61-12.98
			c-15.36-0.55-34.47-1.23-57.48,6.46c-7.47,2.5-27.31,9.13-45.31,25.95c-6.07,5.68-11.53,13.07-21.43,26.49
			c-6.89,9.34-10.68,14.48-7.25,20.04c1.86,3.01,4.87,4.41,9.35,4.41c7.58,0,19.37-4,36.95-10.96c8.23-3.26,13.06-5.64,16.95-7.56
			c4.59-2.26,7.91-3.9,14.8-6.08c5.48-1.73,15.68-4.96,29.1-5.84c11.19-0.73,19.27,0.52,35.35,3c14.14,2.18,21.24,3.28,31.51,5.99
			c3.04,0.8,5.74,1.58,8.12,2.27c9.03,2.62,15.55,4.5,24.24,2.35c5.26-1.3,17.74-5.43,20.13-15.58
			C1231.6,1124.34,1226.42,1115.67,1213.82,1106.11z"/>
		<path d="M1516.08,1103.42c-15.95-11.89-30.92-16.77-39.87-19.69c-25.98-8.47-47.61-8.19-63.41-7.98
			c-19.07,0.24-34.56,2.57-47.36,7.1c-11.6,4.11-26.04,9.22-31.93,23.3c-4.27,10.21-4.03,24.85,4.82,31.86
			c6.37,5.05,12.94,3.51,24.88,0.72c3.21-0.75,6.85-1.6,11.19-2.51c0.18-0.04,18.86-3.91,35.97-5.58c10.21-1,22.92-2.24,39.18-0.03
			c6.29,0.86,19.37,2.64,34.76,9.34c5.57,2.43,9.07,4.46,12.44,6.42c4.28,2.49,8.7,5.06,16.54,7.97
			c10.03,3.73,19.19,6.82,26.19,6.82c4.48,0,8.07-1.26,10.45-4.43c1.2-1.6,2.51-4.4,1.89-8.67
			C1550.01,1135.61,1531.87,1115.2,1516.08,1103.42z"/>
		<path d="M1673.91,1221.01c-4.22-12.81-12.36-21.5-13.35-35.49c-0.94-13.36,2.73-27.13,4.67-40.21c4.96-33.49,5.6-67.7,3.59-101.47
			c-2.72-45.71-15.95-87.67-26.24-132.03c-26.17-112.83-83.71-183.65-139.05-225.55c-49.93-37.8-117.3-71.33-216.24-71.33
			c-97.46,0-167.28,37.73-211.56,71.33c-51.92,39.4-87.79,98.15-119.46,154.09c-28.49,50.31-51.72,106.1-57.55,164.05
			c-5.64,56,0.3,113.3,10.45,168.47c1.46,7.93,4.9,17.1,5.05,25.13c0.26,14.29-7.71,31.31-9.91,45.95
			c-4.46,29.58-0.51,58.17,11.01,85.78c9.43,22.6,18.15,41.94,20.97,66.69c3.09,27.16,5.33,54.37,8.94,81.48
			c6.37,47.93,23.31,88.51,43.09,132.45c24.2,53.77,50.05,113.83,95.91,153.07c43.43,37.17,108.66,63.29,164.65,71.35
			c55.19,7.96,113.03,1.52,163.81-22.05c60.01-27.86,97.12-73.19,135.7-124.36c31.8-42.18,59.09-84.96,74.87-136.06
			c18.71-60.56,16.63-120.92,25.75-182.89C1655.9,1322.51,1689.63,1268.7,1673.91,1221.01z M1287.29,1492.02
			c-64.48,0-97.46-19.26-97.46-23.37c0-0.7,0.55-2.28,2.49-4.46c11.46-12.92,50.43-28.04,88-29.09c1.48-0.04,2.96-0.06,4.45-0.06
			c37.55,0,75.32,13,88,25.8c2.46,2.48,3.26,4.4,3.26,5.36C1376.04,1471.47,1344.18,1492.02,1287.29,1492.02z M1576.5,1351.59
			c3.55,33.35-12.53,93.54-43.95,111.94c-22.59,13.23-41.85,19.99-68.25,19.72c-10.93-9.96,8.94-26.57,5-48.22
			c-2.66-14.61-15.94-33.3-37.68-42.99c-31.38-13.98-50.31-26.46-85.24-33.09c-27.96-5.3-103.63-7.15-146.29,2.87
			c-25.64,6.02-51,20.86-75.74,30.21c-12.67,4.79-25.41,13.69-32.25,25.62c-12.01,20.93,1.71,34.85,2.72,55.11
			c0.74,14.8-4.52,10.72-18.63,8.41c-8.68-1.42-18.63-2.79-27.72-5.74c-34.04-11.04-55.86-35.48-64.03-70.07
			c-6.23-26.36-3.37-53.31-6.93-79.98c-3.47-26.04-6.21-52.16-8.23-78.36c-2.55-33.04-3.93-66.91-0.02-99.89
			c4.05-34.18,29.39-55.71,37.37-88.02c5.76-23.3,1.22-53.08,0.88-77.2c-0.41-28.94,5.68-43.64,18.32-69.71
			c9.13-18.83,13.04-42.92,31.27-55.3c26.35-17.9,67.92-16.96,98.13-14.48c40.71,3.33,79.87,16.35,120.84,18.02
			c39.32,1.6,74.72-7.14,111.52-19.72c29.97-10.25,54.51-11.02,81.48,6.44c28.34,18.34,52.41,44.27,67.75,74.38
			c8.14,15.96,3.54,35.1,1.77,52.49c-2.88,28.19-4.39,52.93,8.17,78.61c20.46,41.84,39.43,88.23,41.93,135.15
			C1591.66,1243.5,1570.66,1296.84,1576.5,1351.59z"/>
	</g>
</g>
<rect x="-1439.16" y="725.6" width="1024" height="1024"/>
<g>
	<path class="st3" d="M-983.23,1139.92c-6.33-4.81-13.13-8.36-13.88-8.75l0,0c-17.18-8.87-33.47-9.45-46.56-9.91
		c-11.72-0.42-26.31-0.94-43.87,4.93c-5.7,1.91-20.85,6.97-34.58,19.8c-4.63,4.33-8.8,9.98-16.36,20.22
		c-5.26,7.13-8.16,11.05-5.53,15.3c1.42,2.3,3.71,3.37,7.14,3.37c5.78,0,14.79-3.05,28.2-8.36c6.28-2.48,9.97-4.3,12.94-5.77
		c3.5-1.73,6.04-2.98,11.3-4.64c4.18-1.32,11.96-3.79,22.21-4.46c8.54-0.56,14.71,0.4,26.98,2.29c10.79,1.67,16.21,2.5,24.05,4.57
		c2.32,0.61,4.38,1.21,6.2,1.74c6.89,2,11.87,3.44,18.5,1.79c4.01-0.99,13.54-4.15,15.36-11.9
		C-969.66,1153.84-973.61,1147.22-983.23,1139.92z"/>
	<path class="st3" d="M-752.52,1137.87c-12.17-9.08-23.6-12.8-30.43-15.03c-19.83-6.46-36.34-6.25-48.4-6.09
		c-14.55,0.19-26.38,1.96-36.15,5.42c-8.86,3.13-19.88,7.04-24.37,17.78c-3.26,7.8-3.08,18.97,3.68,24.32
		c4.86,3.85,9.88,2.68,18.99,0.55c2.45-0.57,5.23-1.22,8.54-1.92c0.14-0.03,14.39-2.98,27.46-4.26c7.79-0.76,17.49-1.71,29.9-0.02
		c4.8,0.65,14.78,2.01,26.53,7.13c4.25,1.85,6.92,3.4,9.5,4.9c3.26,1.9,6.64,3.86,12.63,6.08c7.66,2.85,14.65,5.2,19.99,5.2
		c3.42,0,6.16-0.96,7.97-3.38c0.92-1.22,1.91-3.36,1.45-6.61C-726.63,1162.44-740.48,1146.86-752.52,1137.87z"/>
	<path class="st3" d="M-632.06,1227.62c-3.22-9.78-9.43-16.41-10.19-27.09c-0.72-10.19,2.08-20.71,3.56-30.69
		c3.79-25.56,4.27-51.67,2.74-77.45c-2.08-34.89-12.18-66.92-20.03-100.78c-19.97-86.12-63.9-140.18-106.13-172.16
		c-38.11-28.85-89.53-54.44-165.05-54.44c-74.39,0-127.68,28.8-161.48,54.44c-39.63,30.08-67,74.92-91.18,117.61
		c-21.74,38.4-39.48,80.99-43.93,125.22c-4.3,42.75,0.23,86.48,7.97,128.59c1.11,6.05,3.74,13.05,3.85,19.18
		c0.2,10.91-5.88,23.9-7.57,35.07c-3.41,22.58-0.39,44.4,8.41,65.47c7.2,17.25,13.85,32.01,16,50.9c2.36,20.73,4.07,41.5,6.82,62.19
		c4.86,36.58,17.79,67.56,32.89,101.1c18.47,41.04,38.2,86.88,73.2,116.84c33.15,28.37,82.94,48.3,125.67,54.46
		c42.13,6.07,86.27,1.16,125.04-16.83c45.81-21.26,74.13-55.86,103.57-94.92c24.27-32.19,45.1-64.85,57.15-103.85
		c14.28-46.23,12.69-92.3,19.65-139.59C-645.81,1305.1-620.06,1264.02-632.06,1227.62z M-927.15,1434.48
		c-49.21,0-74.39-14.7-74.39-17.83c0-0.53,0.42-1.74,1.9-3.41c8.75-9.86,38.49-21.4,67.17-22.21c1.13-0.03,2.26-0.05,3.4-0.05
		c28.66,0,57.49,9.92,67.17,19.69c1.88,1.89,2.49,3.36,2.49,4.09C-859.41,1418.79-883.74,1434.48-927.15,1434.48z M-706.41,1327.29
		c2.71,25.45-9.57,71.4-33.55,85.44c-17.24,10.1-31.94,15.25-52.09,15.06c-8.34-7.6,6.82-20.28,3.82-36.8
		c-2.03-11.15-12.16-25.42-28.76-32.81c-23.95-10.67-38.4-20.2-65.06-25.26c-21.34-4.05-79.1-5.46-111.66,2.19
		c-19.57,4.6-38.92,15.92-57.81,23.06c-9.67,3.66-19.39,10.45-24.62,19.56c-9.17,15.98,1.3,26.6,2.08,42.07
		c0.56,11.3-3.45,8.18-14.22,6.42c-6.62-1.08-14.22-2.13-21.16-4.38c-25.98-8.42-42.63-27.08-48.87-53.48
		c-4.75-20.12-2.57-40.69-5.29-61.05c-2.65-19.88-4.74-39.81-6.28-59.81c-1.95-25.22-3-51.07-0.01-76.24
		c3.09-26.09,22.43-42.52,28.53-67.19c4.39-17.78,0.93-40.51,0.67-58.92c-0.31-22.09,4.33-33.31,13.98-53.21
		c6.97-14.37,9.95-32.76,23.87-42.21c20.11-13.67,51.84-12.94,74.9-11.05c31.08,2.54,60.97,12.48,92.24,13.76
		c30.01,1.22,57.03-5.45,85.12-15.05c22.87-7.82,41.61-8.41,62.19,4.91c21.63,14,40,33.79,51.71,56.77
		c6.21,12.18,2.7,26.79,1.35,40.07c-2.2,21.51-3.35,40.4,6.23,60c15.61,31.93,30.1,67.34,32,103.15
		C-694.84,1244.79-710.87,1285.5-706.41,1327.29z"/>
</g>
<g>
	<path d="M-2236.73,1139.92c-6.33-4.81-13.13-8.36-13.88-8.75l0,0c-17.18-8.87-33.47-9.45-46.56-9.91
		c-11.72-0.42-26.31-0.94-43.87,4.93c-5.7,1.91-20.85,6.97-34.58,19.8c-4.63,4.33-8.8,9.98-16.36,20.22
		c-5.26,7.13-8.16,11.05-5.53,15.3c1.42,2.3,3.71,3.37,7.14,3.37c5.78,0,14.79-3.05,28.2-8.36c6.28-2.48,9.97-4.3,12.94-5.77
		c3.5-1.73,6.04-2.98,11.3-4.64c4.18-1.32,11.96-3.79,22.21-4.46c8.54-0.56,14.71,0.4,26.98,2.29c10.79,1.67,16.21,2.5,24.05,4.57
		c2.32,0.61,4.38,1.21,6.2,1.74c6.89,2,11.87,3.44,18.5,1.79c4.01-0.99,13.54-4.15,15.36-11.9
		C-2223.16,1153.84-2227.12,1147.22-2236.73,1139.92z"/>
	<path d="M-2006.03,1137.87c-12.17-9.08-23.6-12.8-30.43-15.03c-19.83-6.46-36.34-6.25-48.4-6.09c-14.55,0.19-26.38,1.96-36.15,5.42
		c-8.86,3.13-19.88,7.04-24.37,17.78c-3.26,7.8-3.08,18.97,3.68,24.32c4.86,3.85,9.88,2.68,18.99,0.55
		c2.45-0.57,5.23-1.22,8.54-1.92c0.14-0.03,14.39-2.98,27.46-4.26c7.79-0.76,17.49-1.71,29.9-0.02c4.8,0.65,14.78,2.01,26.53,7.13
		c4.25,1.85,6.92,3.4,9.5,4.9c3.26,1.9,6.64,3.86,12.63,6.08c7.66,2.85,14.65,5.2,19.99,5.2c3.42,0,6.16-0.96,7.97-3.38
		c0.92-1.22,1.91-3.36,1.45-6.61C-1980.13,1162.44-1993.98,1146.86-2006.03,1137.87z"/>
	<path d="M-1885.56,1227.62c-3.22-9.78-9.43-16.41-10.19-27.09c-0.72-10.19,2.08-20.71,3.56-30.69c3.79-25.56,4.27-51.67,2.74-77.45
		c-2.08-34.89-12.18-66.92-20.03-100.78c-19.97-86.12-63.9-140.18-106.13-172.16c-38.11-28.85-89.53-54.44-165.05-54.44
		c-74.39,0-127.68,28.8-161.48,54.44c-39.63,30.08-67,74.92-91.18,117.61c-21.74,38.4-39.48,80.99-43.93,125.22
		c-4.3,42.75,0.23,86.48,7.97,128.59c1.11,6.05,3.74,13.05,3.85,19.18c0.2,10.91-5.88,23.9-7.57,35.07
		c-3.41,22.58-0.39,44.4,8.41,65.47c7.2,17.25,13.85,32.01,16,50.9c2.36,20.73,4.07,41.5,6.82,62.19
		c4.86,36.58,17.79,67.56,32.89,101.1c18.47,41.04,38.2,86.88,73.2,116.84c33.15,28.37,82.94,48.3,125.67,54.46
		c42.13,6.07,86.27,1.16,125.04-16.83c45.81-21.26,74.13-55.86,103.57-94.92c24.27-32.19,45.1-64.85,57.15-103.85
		c14.28-46.23,12.69-92.3,19.65-139.59C-1899.31,1305.1-1873.56,1264.02-1885.56,1227.62z M-2180.66,1434.48
		c-49.21,0-74.39-14.7-74.39-17.83c0-0.53,0.42-1.74,1.9-3.41c8.75-9.86,38.49-21.4,67.17-22.21c1.13-0.03,2.26-0.05,3.4-0.05
		c28.66,0,57.49,9.92,67.17,19.69c1.88,1.89,2.49,3.36,2.49,4.09C-2112.92,1418.79-2137.24,1434.48-2180.66,1434.48z
		 M-1959.92,1327.29c2.71,25.45-9.57,71.4-33.55,85.44c-17.24,10.1-31.94,15.25-52.09,15.06c-8.34-7.6,6.82-20.28,3.82-36.8
		c-2.03-11.15-12.16-25.42-28.76-32.81c-23.95-10.67-38.4-20.2-65.06-25.26c-21.34-4.05-79.1-5.46-111.66,2.19
		c-19.57,4.6-38.92,15.92-57.81,23.06c-9.67,3.66-19.39,10.45-24.62,19.56c-9.17,15.98,1.3,26.6,2.08,42.07
		c0.56,11.3-3.45,8.18-14.22,6.42c-6.62-1.08-14.22-2.13-21.16-4.38c-25.98-8.42-42.63-27.08-48.87-53.48
		c-4.75-20.12-2.57-40.69-5.29-61.05c-2.65-19.88-4.74-39.81-6.28-59.81c-1.95-25.22-3-51.07-0.01-76.24
		c3.09-26.09,22.43-42.52,28.53-67.19c4.39-17.78,0.93-40.51,0.67-58.92c-0.31-22.09,4.33-33.31,13.98-53.21
		c6.97-14.37,9.95-32.76,23.87-42.21c20.11-13.67,51.84-12.94,74.9-11.05c31.08,2.54,60.97,12.48,92.24,13.76
		c30.01,1.22,57.03-5.45,85.12-15.05c22.87-7.82,41.61-8.41,62.19,4.91c21.63,14,40,33.79,51.71,56.77
		c6.21,12.18,2.7,26.79,1.35,40.07c-2.2,21.51-3.35,40.4,6.23,60c15.61,31.93,30.1,67.34,32,103.15
		C-1948.34,1244.79-1964.37,1285.5-1959.92,1327.29z"/>
</g>
</svg>
